<?xml version="1.0" encoding="UTF-8"?>
<svg id="Cartridge" xmlns="http://www.w3.org/2000/svg" baseProfile="tiny" version="1.2" viewBox="0 0 538 566">
  <rect x="3.41" y="3.06" width="531.69" height="559.88" rx="5.33" ry="5.33" fill="#deffed" stroke-width="0"/>
  <path d="M529.61,0H8.39C4.03,0,.5,3.53.5,7.87v550.25c0,4.35,3.53,7.87,7.89,7.87h521.22c4.36,0,7.89-3.53,7.89-7.87V7.87c0-4.35-3.53-7.87-7.89-7.87ZM533.5,558.13c0,2.14-1.74,3.88-3.89,3.88H86.5v-43.92h-33v43.92H8.39c-2.14,0-3.89-1.74-3.89-3.88V7.87c0-2.14,1.74-3.88,3.89-3.88h521.22c2.14,0,3.89,1.74,3.89,3.88v550.25h0ZM449.64,76.86H88.36c-19.25,0-34.86,15.58-34.86,34.8v56.19c0,19.22,15.61,34.8,34.86,34.8h361.29c19.25,0,34.86-15.58,34.86-34.8v-56.19c0-19.22-15.61-34.8-34.86-34.8h-.01ZM480.5,167.85c0,16.98-13.84,30.8-30.86,30.8H88.36c-17.01,0-30.86-13.82-30.86-30.8v-56.19c0-16.98,13.84-30.8,30.86-30.8h361.29c17.01,0,30.86,13.82,30.86,30.8v56.19h-.01ZM449.64,298.47H88.36c-19.25,0-34.86,15.58-34.86,34.8v56.19c0,19.22,15.61,34.8,34.86,34.8h361.29c19.25,0,34.86-15.58,34.86-34.8v-56.19c0-19.22-15.61-34.8-34.86-34.8h-.01ZM480.5,389.45c0,16.98-13.84,30.8-30.86,30.8H88.36c-17.01,0-30.86-13.82-30.86-30.8v-56.19c0-16.98,13.84-30.8,30.86-30.8h361.29c17.01,0,30.86,13.82,30.86,30.8v56.19h-.01Z" fill="#13ff81" stroke-width="0"/>
</svg>