<?xml version="1.0" encoding="UTF-8"?>
<svg id="door" xmlns="http://www.w3.org/2000/svg" baseProfile="tiny" version="1.2" viewBox="0 0 537 567.01">
  <path d="M527.36,0H9.64C4.32,0,0,4.32,0,9.65v557.36h537V9.65c0-5.33-4.32-9.64-9.64-9.64h0Z" fill="#ffc4c6" stroke-width="0"/>
  <path d="M527.36,4c3.11,0,5.64,2.53,5.64,5.64v553.36H4V9.65c0-3.11,2.53-5.64,5.64-5.64h517.71M527.36,0H9.64C4.32,0,0,4.32,0,9.65v557.36h537V9.65c0-5.33-4.32-9.64-9.64-9.64h0Z" fill="#ff1319" stroke-width="0"/>
  <path id="latchBound" d="M311.36,20.94c3.11,0,5.64,2.53,5.64,5.64v15.71c0,3.11-2.53,5.64-5.64,5.64h-85.71c-3.11,0-5.64-2.53-5.64-5.64v-15.71c0-3.11,2.53-5.64,5.64-5.64h85.71M311.36,16.94h-85.71c-5.33,0-9.64,4.32-9.64,9.64v15.71c0,5.33,4.32,9.64,9.64,9.64h85.71c5.33,0,9.64-4.32,9.64-9.64v-15.71c0-5.33-4.32-9.64-9.64-9.64h0Z" fill="#ff1319" stroke-width="0"/>
  <path id="latch" d="M311.36,20.94c3.11,0,5.64,2.53,5.64,5.64v1.71c0,3.11-2.53,5.64-5.64,5.64h-85.71c-3.11,0-5.64-2.53-5.64-5.64v-1.71c0-3.11,2.53-5.64,5.64-5.64h85.71M311.36,16.94h-85.71c-5.33,0-9.64,4.32-9.64,9.64v1.71c0,5.33,4.32,9.64,9.64,9.64h85.71c5.33,0,9.64-4.32,9.64-9.64v-1.71c0-5.33-4.32-9.64-9.64-9.64h0Z" fill="#ff1319" stroke-width="0"/>
</svg>