<?xml version="1.0" encoding="UTF-8"?>
<svg id="camSequence" xmlns="http://www.w3.org/2000/svg" baseProfile="tiny" version="1.2" viewBox="0 0 812 760">
  <path d="M766.18,7.88c20.27,0,36.76,16.49,36.76,36.76v670.49c0,20.27-16.49,36.76-36.76,36.76H45.7c-20.27,0-36.76-16.49-36.76-36.76V44.64C8.94,24.37,25.43,7.88,45.7,7.88h720.49M766.18,3.88H45.7C23.19,3.88,4.94,22.13,4.94,44.64v670.49c0,22.51,18.25,40.76,40.76,40.76h720.49c22.51,0,40.76-18.25,40.76-40.76V44.64c0-22.51-18.25-40.76-40.76-40.76h0Z" fill="#000" stroke-width="0"/>
  <path d="M625.3,159.88c3.11,0,5.64,2.53,5.64,5.64v553.36H101.94V165.53c0-3.11,2.53-5.64,5.64-5.64h517.71M625.3,155.88H107.58c-5.33,0-9.64,4.32-9.64,9.64v557.36h537V165.53c0-5.33-4.32-9.64-9.64-9.64h0Z" fill="#000" stroke-width="0"/>
  <path d="M565.18,200.88c2.62,0,4.76,2.13,4.76,4.76v467.49c0,2.62-2.13,4.76-4.76,4.76H167.7c-2.62,0-4.76-2.13-4.76-4.76V205.64c0-2.62,2.13-4.76,4.76-4.76h397.49M565.18,196.88H167.7c-4.84,0-8.76,3.92-8.76,8.76v467.49c0,4.84,3.92,8.76,8.76,8.76h397.49c4.84,0,8.76-3.92,8.76-8.76V205.64c0-4.84-3.92-8.76-8.76-8.76h0Z" fill="#000" stroke-width="0"/>
  <path d="M475.18,306.06c2.62,0,4.76,2.13,4.76,4.76v257.12c0,2.62-2.13,4.76-4.76,4.76h-217.49c-2.62,0-4.76-2.13-4.76-4.76v-257.12c0-2.62,2.13-4.76,4.76-4.76h217.49M475.18,302.06h-217.49c-4.84,0-8.76,3.92-8.76,8.76v257.12c0,4.84,3.92,8.76,8.76,8.76h217.49c4.84,0,8.76-3.92,8.76-8.76v-257.12c0-4.84-3.92-8.76-8.76-8.76h0Z" fill="#000" stroke-width="0"/>
  <path d="M403.18,398.05c2.62,0,4.76,2.13,4.76,4.76v73.16c0,2.62-2.13,4.76-4.76,4.76h-73.49c-2.62,0-4.76-2.13-4.76-4.76v-73.16c0-2.62,2.13-4.76,4.76-4.76h73.49M403.18,394.05h-73.49c-4.84,0-8.76,3.92-8.76,8.76v73.16c0,4.84,3.92,8.76,8.76,8.76h73.49c4.84,0,8.76-3.92,8.76-8.76v-73.16c0-4.84-3.92-8.76-8.76-8.76h0Z" fill="#000" stroke-width="0"/>
  <path d="M766.18,7.88c20.27,0,36.76,16.49,36.76,36.76v91.49c0,20.27-16.49,36.76-36.76,36.76h-74.49c-20.27,0-36.76-16.49-36.76-36.76V44.64c0-20.27,16.49-36.76,36.76-36.76h74.49M766.18,3.88h-74.49c-22.51,0-40.76,18.25-40.76,40.76v91.49c0,22.51,18.25,40.76,40.76,40.76h74.49c22.51,0,40.76-18.25,40.76-40.76V44.64c0-22.51-18.25-40.76-40.76-40.76h0Z" fill="#000" stroke-width="0"/>
  <path d="M763.57,30.81c12.33,0,22.37,10.03,22.37,22.37v42.87c0,12.33-10.03,22.37-22.37,22.37h-43.27c-12.33,0-22.37-10.03-22.37-22.37v-42.87c0-12.33,10.03-22.37,22.37-22.37h43.27M763.57,26.81h-43.27c-14.56,0-26.37,11.81-26.37,26.37v42.87c0,14.56,11.81,26.37,26.37,26.37h43.27c14.56,0,26.37-11.81,26.37-26.37v-42.87c0-14.56-11.81-26.37-26.37-26.37h0Z" fill="#000" stroke-width="0"/>
  <path d="M755.12,52.24c5.07,0,9.19,4.12,9.19,9.19v26.36c0,5.07-4.12,9.19-9.19,9.19h-26.36c-5.07,0-9.19-4.12-9.19-9.19v-26.36c0-5.07,4.12-9.19,9.19-9.19h26.36M755.12,48.24h-26.36c-7.28,0-13.19,5.9-13.19,13.19v26.36c0,7.28,5.9,13.19,13.19,13.19h26.36c7.28,0,13.19-5.9,13.19-13.19v-26.36c0-7.28-5.9-13.19-13.19-13.19h0Z" fill="#000" stroke-width="0"/>
  <path d="M666.19,7.88c-11.62,8.09-19.25,21.55-19.25,36.76v89.24H45.7c-20.27,0-36.76-16.49-36.76-36.76v-52.49C8.94,24.37,25.43,7.88,45.7,7.88h620.49M691.7,3.88H45.7C23.19,3.88,4.94,22.13,4.94,44.64v52.49c0,22.51,18.25,40.76,40.76,40.76h605.29c-.02-.58-.04-1.17-.04-1.76V44.64c0-22.51,18.25-40.76,40.76-40.76h0Z" fill="#000" stroke-width="0"/>
  <g>
    <line x1="47.94" y1="70.88" x2="20.67" y2="115.88" fill="none" stroke="#000" stroke-miterlimit="10" stroke-width="2"/>
    <line x1="74.94" y1="70.88" x2="47.67" y2="115.88" fill="none" stroke="#000" stroke-miterlimit="10" stroke-width="2"/>
    <line x1="101.94" y1="70.88" x2="74.67" y2="115.88" fill="none" stroke="#000" stroke-miterlimit="10" stroke-width="2"/>
    <line x1="128.94" y1="70.88" x2="101.67" y2="115.88" fill="none" stroke="#000" stroke-miterlimit="10" stroke-width="2"/>
    <line x1="155.94" y1="70.88" x2="128.67" y2="115.88" fill="none" stroke="#000" stroke-miterlimit="10" stroke-width="2"/>
    <line x1="182.94" y1="70.88" x2="155.67" y2="115.88" fill="none" stroke="#000" stroke-miterlimit="10" stroke-width="2"/>
    <line x1="209.94" y1="70.88" x2="182.67" y2="115.88" fill="none" stroke="#000" stroke-miterlimit="10" stroke-width="2"/>
    <line x1="236.94" y1="70.88" x2="209.67" y2="115.88" fill="none" stroke="#000" stroke-miterlimit="10" stroke-width="2"/>
    <line x1="263.94" y1="70.88" x2="236.67" y2="115.88" fill="none" stroke="#000" stroke-miterlimit="10" stroke-width="2"/>
    <line x1="290.94" y1="70.88" x2="263.67" y2="115.88" fill="none" stroke="#000" stroke-miterlimit="10" stroke-width="2"/>
    <line x1="317.94" y1="70.88" x2="290.67" y2="115.88" fill="none" stroke="#000" stroke-miterlimit="10" stroke-width="2"/>
    <line x1="344.94" y1="70.88" x2="317.67" y2="115.88" fill="none" stroke="#000" stroke-miterlimit="10" stroke-width="2"/>
    <line x1="371.94" y1="70.88" x2="344.67" y2="115.88" fill="none" stroke="#000" stroke-miterlimit="10" stroke-width="2"/>
    <line x1="398.94" y1="70.88" x2="371.67" y2="115.88" fill="none" stroke="#000" stroke-miterlimit="10" stroke-width="2"/>
    <line x1="425.94" y1="70.88" x2="398.67" y2="115.88" fill="none" stroke="#000" stroke-miterlimit="10" stroke-width="2"/>
    <line x1="452.94" y1="70.88" x2="425.67" y2="115.88" fill="none" stroke="#000" stroke-miterlimit="10" stroke-width="2"/>
    <line x1="479.94" y1="70.88" x2="452.67" y2="115.88" fill="none" stroke="#000" stroke-miterlimit="10" stroke-width="2"/>
    <line x1="506.94" y1="70.88" x2="479.67" y2="115.88" fill="none" stroke="#000" stroke-miterlimit="10" stroke-width="2"/>
    <line x1="533.94" y1="70.88" x2="506.67" y2="115.88" fill="none" stroke="#000" stroke-miterlimit="10" stroke-width="2"/>
    <line x1="560.94" y1="70.88" x2="533.67" y2="115.88" fill="none" stroke="#000" stroke-miterlimit="10" stroke-width="2"/>
    <line x1="587.94" y1="70.88" x2="560.67" y2="115.88" fill="none" stroke="#000" stroke-miterlimit="10" stroke-width="2"/>
    <line x1="614.94" y1="70.88" x2="587.67" y2="115.88" fill="none" stroke="#000" stroke-miterlimit="10" stroke-width="2"/>
    <line x1="641.94" y1="70.88" x2="614.67" y2="115.88" fill="none" stroke="#000" stroke-miterlimit="10" stroke-width="2"/>
  </g>
  <g>
    <line x1="556.8" y1="228.9" x2="523.55" y2="208.75" fill="none" stroke="#000" stroke-miterlimit="10" stroke-width="2"/>
    <line x1="556.8" y1="248.85" x2="523.55" y2="228.7" fill="none" stroke="#000" stroke-miterlimit="10" stroke-width="2"/>
    <line x1="556.8" y1="268.81" x2="523.55" y2="248.65" fill="none" stroke="#000" stroke-miterlimit="10" stroke-width="2"/>
    <line x1="556.8" y1="288.76" x2="523.55" y2="268.61" fill="none" stroke="#000" stroke-miterlimit="10" stroke-width="2"/>
    <line x1="556.8" y1="308.72" x2="523.55" y2="288.56" fill="none" stroke="#000" stroke-miterlimit="10" stroke-width="2"/>
    <line x1="556.8" y1="328.67" x2="523.55" y2="308.51" fill="none" stroke="#000" stroke-miterlimit="10" stroke-width="2"/>
    <line x1="556.8" y1="348.62" x2="523.55" y2="328.47" fill="none" stroke="#000" stroke-miterlimit="10" stroke-width="2"/>
    <line x1="556.8" y1="368.58" x2="523.55" y2="348.42" fill="none" stroke="#000" stroke-miterlimit="10" stroke-width="2"/>
    <line x1="556.8" y1="388.53" x2="523.55" y2="368.38" fill="none" stroke="#000" stroke-miterlimit="10" stroke-width="2"/>
    <line x1="556.8" y1="408.48" x2="523.55" y2="388.33" fill="none" stroke="#000" stroke-miterlimit="10" stroke-width="2"/>
    <line x1="556.8" y1="428.44" x2="523.55" y2="408.28" fill="none" stroke="#000" stroke-miterlimit="10" stroke-width="2"/>
    <line x1="556.8" y1="448.39" x2="523.55" y2="428.24" fill="none" stroke="#000" stroke-miterlimit="10" stroke-width="2"/>
    <line x1="556.8" y1="468.35" x2="523.55" y2="448.19" fill="none" stroke="#000" stroke-miterlimit="10" stroke-width="2"/>
    <line x1="556.8" y1="488.3" x2="523.55" y2="468.14" fill="none" stroke="#000" stroke-miterlimit="10" stroke-width="2"/>
    <line x1="556.8" y1="508.25" x2="523.55" y2="488.1" fill="none" stroke="#000" stroke-miterlimit="10" stroke-width="2"/>
    <line x1="556.8" y1="528.21" x2="523.55" y2="508.05" fill="none" stroke="#000" stroke-miterlimit="10" stroke-width="2"/>
    <line x1="556.8" y1="548.16" x2="523.55" y2="528" fill="none" stroke="#000" stroke-miterlimit="10" stroke-width="2"/>
    <line x1="556.8" y1="568.11" x2="523.55" y2="547.96" fill="none" stroke="#000" stroke-miterlimit="10" stroke-width="2"/>
    <line x1="556.8" y1="588.07" x2="523.55" y2="567.91" fill="none" stroke="#000" stroke-miterlimit="10" stroke-width="2"/>
    <line x1="556.8" y1="608.02" x2="523.55" y2="587.87" fill="none" stroke="#000" stroke-miterlimit="10" stroke-width="2"/>
    <line x1="556.8" y1="627.97" x2="523.55" y2="607.82" fill="none" stroke="#000" stroke-miterlimit="10" stroke-width="2"/>
    <line x1="556.8" y1="647.93" x2="523.55" y2="627.77" fill="none" stroke="#000" stroke-miterlimit="10" stroke-width="2"/>
    <line x1="556.8" y1="667.88" x2="523.55" y2="647.73" fill="none" stroke="#000" stroke-miterlimit="10" stroke-width="2"/>
  </g>
</svg>