<?xml version="1.0" encoding="UTF-8"?>
<svg id="Layer_1" data-name="Layer 1" xmlns="http://www.w3.org/2000/svg" viewBox="0 0 806 756">
  <g id="camDoor">
    <path class="cls-2" d="M622.36,158c3.11,0,5.64,2.53,5.64,5.64v547.71c0,3.11-2.53,5.64-5.64,5.64H104.64c-3.11,0-5.64-2.53-5.64-5.64V163.64c0-3.11,2.53-5.64,5.64-5.64h517.71M622.36,154H104.64c-5.33,0-9.64,4.32-9.64,9.64v547.71c0,5.33,4.32,9.64,9.64,9.64h517.71c5.33,0,9.64-4.32,9.64-9.64V163.64c0-5.33-4.32-9.64-9.64-9.64h0Z"/>
  </g>
  <g id="latchBorder">
    <path class="cls-2" d="M406.36,176c3.11,0,5.64,2.53,5.64,5.64v1.71c0,3.11-2.53,5.64-5.64,5.64h-85.71c-3.11,0-5.64-2.53-5.64-5.64v-1.71c0-3.11,2.53-5.64,5.64-5.64h85.71M406.36,172h-85.71c-5.33,0-9.64,4.32-9.64,9.64v1.71c0,5.33,4.32,9.64,9.64,9.64h85.71c5.33,0,9.64-4.32,9.64-9.64v-1.71c0-5.33-4.32-9.64-9.64-9.64h0Z"/>
  </g>
  <path id="CamBod" class="cls-3" d="M763.24,754H42.76c-22.51,0-40.76-18.25-40.76-40.76V42.76C2,20.25,20.25,2,42.76,2h720.49c22.51,0,40.76,18.25,40.76,40.76v670.49c0,22.51-18.25,40.76-40.76,40.76ZM804,134.24V42.76c0-22.51-18.25-40.76-40.76-40.76h-74.49c-22.51,0-40.76,18.25-40.76,40.76v91.49c0,22.51,18.25,40.76,40.76,40.76h74.49c22.51,0,40.76-18.25,40.76-40.76ZM787,94.16v-42.87c0-14.56-11.81-26.37-26.37-26.37h-43.27c-14.56,0-26.37,11.81-26.37,26.37v42.87c0,14.56,11.81,26.37,26.37,26.37h43.27c14.56,0,26.37-11.81,26.37-26.37ZM765.37,85.91v-26.36c0-7.28-5.9-13.19-13.19-13.19h-26.36c-7.28,0-13.19,5.9-13.19,13.19v26.36c0,7.28,5.9,13.19,13.19,13.19h26.36c7.28,0,13.19-5.9,13.19-13.19ZM648,134.24V42.76c0-22.51,18.25-40.76,40.76-40.76H42.76C20.25,2,2,20.25,2,42.76v52.49c0,22.51,18.25,40.76,40.76,40.76h605.29c-.02-.58-.04-1.17-.04-1.76ZM45,69l-27.27,45M72,69l-27.27,45M99,69l-27.27,45M126,69l-27.27,45M153,69l-27.27,45M180,69l-27.27,45M207,69l-27.27,45M234,69l-27.27,45M261,69l-27.27,45M288,69l-27.27,45M315,69l-27.27,45M342,69l-27.27,45M369,69l-27.27,45M396,69l-27.27,45M423,69l-27.27,45M450,69l-27.27,45M477,69l-27.27,45M504,69l-27.27,45M531,69l-27.27,45M558,69l-27.27,45M585,69l-27.27,45M612,69l-27.27,45M639,69l-27.27,45M751.81,646h-14.62c-5.07,0-9.19,4.11-9.19,9.19v29.62c0,5.07,4.11,9.19,9.19,9.19h14.62c5.07,0,9.19-4.11,9.19-9.19v-29.62c0-5.07-4.11-9.19-9.19-9.19Z"/>
  <circle id="LED" class="cls-1" cx="27" cy="185" r="5"/>
</svg>