<?xml version="1.0" encoding="UTF-8"?>
<svg id="deco" xmlns="http://www.w3.org/2000/svg" viewBox="0 0 1405.82 106.39">
  <defs>
    <style>
      .cls-1 {
        fill: none;
        stroke: #fff;
        stroke-miterlimit: 10;
        stroke-width: 10px;
      }
    </style>
  </defs>
  <path id="decoPath" class="cls-1" d="M1340.21,103.8l61.34-101.21M1279.49,103.8l61.34-101.21M1218.76,103.8l61.34-101.21M1158.04,103.8l61.34-101.21M1097.31,103.8l61.34-101.21M1097.93,2.59l-61.34,101.21M975.87,103.8l61.34-101.21M915.14,103.8L976.48,2.59M854.42,103.8L915.75,2.59M793.69,103.8L855.03,2.59M732.97,103.8L794.31,2.59M672.24,103.8L733.58,2.59M611.52,103.8L672.86,2.59M550.79,103.8L612.13,2.59M551.41,2.59l-61.34,101.21M429.35,103.8L490.68,2.59M368.62,103.8L429.96,2.59M307.9,103.8L369.24,2.59M247.17,103.8L308.51,2.59M186.45,103.8L247.79,2.59M125.72,103.8L187.06,2.59M65,103.8L126.34,2.59M4.28,103.8L65.61,2.59"/>
</svg>